<?xml version="1.0" encoding="UTF-8"?>
<svg xmlns="http://www.w3.org/2000/svg" version="1.1" width="1024" height="1024" viewBox="0 0 500 500"><rect x="0" y="0" width="500" height="500" fill="#ffffff"/><g transform="scale(18.519)"><g transform="translate(1,1)"><g><g transform="translate(3.5,3.5)"><path fill-rule="evenodd" d="M-3.5 0C-3.5 3.5 -3.5 3.5 0 3.5C3.5 3.5 3.5 3.5 3.5 0C3.5 -3.5 3.5 -3.5 0 -3.5C-3.5 -3.5 -3.5 -3.5 -3.5 0ZM-2.5 0L-2.5 -1.5A1 1 0 0 1 -1.5 -2.5L1.5 -2.5A1 1 0 0 1 2.5 -1.5L2.5 1.5A1 1 0 0 1 1.5 2.5L-1.5 2.5A1 1 0 0 1 -2.5 1.5Z" fill="#000000"/><path fill-rule="evenodd" d="M-1.5 0C-1.5 1.5 -1.5 1.5 0 1.5L1.5 1.5L1.5 0C1.5 -1.5 1.5 -1.5 0 -1.5C-1.5 -1.5 -1.5 -1.5 -1.5 0Z" fill="#000000"/></g></g><g><g transform="translate(21.5,3.5)"><g transform="rotate(90)"><path fill-rule="evenodd" d="M-3.5 0C-3.5 3.5 -3.5 3.5 0 3.5C3.5 3.5 3.5 3.5 3.5 0C3.5 -3.5 3.5 -3.5 0 -3.5C-3.5 -3.5 -3.5 -3.5 -3.5 0ZM-2.5 0L-2.5 -1.5A1 1 0 0 1 -1.5 -2.5L1.5 -2.5A1 1 0 0 1 2.5 -1.5L2.5 1.5A1 1 0 0 1 1.5 2.5L-1.5 2.5A1 1 0 0 1 -2.5 1.5Z" fill="#000000"/><path fill-rule="evenodd" d="M-1.5 0C-1.5 1.5 -1.5 1.5 0 1.5L1.5 1.5L1.5 0C1.5 -1.5 1.5 -1.5 0 -1.5C-1.5 -1.5 -1.5 -1.5 -1.5 0Z" fill="#000000"/></g></g></g><g><g transform="translate(3.5,21.5)"><g transform="rotate(-90)"><path fill-rule="evenodd" d="M-3.5 0C-3.5 3.5 -3.5 3.5 0 3.5C3.5 3.5 3.5 3.5 3.5 0C3.5 -3.5 3.5 -3.5 0 -3.5C-3.5 -3.5 -3.5 -3.5 -3.5 0ZM-2.5 0L-2.5 -1.5A1 1 0 0 1 -1.5 -2.5L1.5 -2.5A1 1 0 0 1 2.5 -1.5L2.5 1.5A1 1 0 0 1 1.5 2.5L-1.5 2.5A1 1 0 0 1 -2.5 1.5Z" fill="#000000"/><path fill-rule="evenodd" d="M-1.5 0C-1.5 1.5 -1.5 1.5 0 1.5L1.5 1.5L1.5 0C1.5 -1.5 1.5 -1.5 0 -1.5C-1.5 -1.5 -1.5 -1.5 -1.5 0Z" fill="#000000"/></g></g></g><path fill-rule="evenodd" d="M8 0.25L8 0.75A0.25 0.25 0 0 0 8.25 1L8.75 1A0.25 0.25 0 0 0 9 0.75L9 0.25A0.25 0.25 0 0 0 8.75 0L8.25 0A0.25 0.25 0 0 0 8 0.25ZM11 0.25L11 0.75A0.25 0.25 0 0 1 10.75 1L10.25 1A0.25 0.25 0 0 0 10 1.25L10 3.75A0.25 0.25 0 0 1 9.75 4L9.25 4A0.25 0.25 0 0 0 9 4.25L9 4.75A0.25 0.25 0 0 1 8.75 5L8.25 5A0.25 0.25 0 0 0 8 5.25L8 6.75A0.25 0.25 0 0 0 8.25 7L8.75 7A0.25 0.25 0 0 0 9 6.75L9 5.25A0.25 0.25 0 0 1 9.25 5L9.75 5A0.25 0.25 0 0 1 10 5.25L10 6.75A0.25 0.25 0 0 0 10.25 7L10.75 7A0.25 0.25 0 0 1 11 7.25L11 7.75A0.25 0.25 0 0 1 10.75 8L9.25 8A0.25 0.25 0 0 0 9 8.25L9 9.75A0.25 0.25 0 0 0 9.25 10L10.75 10A0.25 0.25 0 0 0 11 9.75L11 9.25A0.25 0.25 0 0 1 11.25 9L11.75 9A0.25 0.25 0 0 0 12 8.75L12 8.25A0.25 0.25 0 0 1 12.25 8L13.75 8A0.25 0.25 0 0 0 14 7.75L14 7.25A0.25 0.25 0 0 1 14.25 7L14.75 7A0.25 0.25 0 0 1 15 7.25L15 8.75A0.25 0.25 0 0 1 14.75 9L14.25 9A0.25 0.25 0 0 0 14 9.25L14 9.75A0.25 0.25 0 0 1 13.75 10L13.25 10A0.25 0.25 0 0 0 13 10.25L13 11.75A0.25 0.25 0 0 1 12.75 12L10.25 12A0.25 0.25 0 0 0 10 12.25L10 12.75A0.25 0.25 0 0 0 10.25 13L12.75 13A0.25 0.25 0 0 0 13 12.75L13 12.25A0.25 0.25 0 0 1 13.25 12L13.75 12A0.25 0.25 0 0 1 14 12.25L14 12.75A0.25 0.25 0 0 0 14.25 13L14.75 13A0.25 0.25 0 0 1 15 13.25L15 13.75A0.25 0.25 0 0 1 14.75 14L14.25 14A0.25 0.25 0 0 0 14 14.25L14 16.75A0.25 0.25 0 0 0 14.25 17L15.75 17A0.25 0.25 0 0 1 16 17.25L16 18.75A0.25 0.25 0 0 1 15.75 19L14.25 19A0.25 0.25 0 0 1 14 18.75L14 18.25A0.25 0.25 0 0 0 13.75 18L13.25 18A0.25 0.25 0 0 1 13 17.75L13 17.25A0.25 0.25 0 0 0 12.75 17L12.25 17A0.25 0.25 0 0 1 12 16.75L12 16.25A0.25 0.25 0 0 0 11.75 16L11.25 16A0.25 0.25 0 0 1 11 15.75L11 15.25A0.25 0.25 0 0 1 11.25 15L12.75 15A0.25 0.25 0 0 0 13 14.75L13 14.25A0.25 0.25 0 0 0 12.75 14L9.25 14A0.25 0.25 0 0 0 9 14.25L9 14.75A0.25 0.25 0 0 1 8.75 15L8.25 15A0.25 0.25 0 0 1 8 14.75L8 13.25A0.25 0.25 0 0 0 7.75 13L7.25 13A0.25 0.25 0 0 1 7 12.75L7 12.25A0.25 0.25 0 0 1 7.25 12L8.75 12A0.25 0.25 0 0 0 9 11.75L9 11.25A0.25 0.25 0 0 0 8.75 11L7.25 11A0.25 0.25 0 0 1 7 10.75L7 10.25A0.25 0.25 0 0 0 6.75 10L6.25 10A0.25 0.25 0 0 1 6 9.75L6 9.25A0.25 0.25 0 0 1 6.25 9L7.75 9A0.25 0.25 0 0 0 8 8.75L8 8.25A0.25 0.25 0 0 0 7.75 8L6.25 8A0.25 0.25 0 0 0 6 8.25L6 8.75A0.25 0.25 0 0 1 5.75 9L4.25 9A0.25 0.25 0 0 0 4 9.25L4 9.75A0.25 0.25 0 0 1 3.75 10L2.25 10A0.25 0.25 0 0 1 2 9.75L2 9.25A0.25 0.25 0 0 1 2.25 9L2.75 9A0.25 0.25 0 0 0 3 8.75L3 8.25A0.25 0.25 0 0 0 2.75 8L2.25 8A0.25 0.25 0 0 0 2 8.25L2 8.75A0.25 0.25 0 0 1 1.75 9L1.25 9A0.25 0.25 0 0 1 1 8.75L1 8.25A0.25 0.25 0 0 0 0.75 8L0.25 8A0.25 0.25 0 0 0 0 8.25L0 8.75A0.25 0.25 0 0 0 0.25 9L0.75 9A0.25 0.25 0 0 1 1 9.25L1 10.75A0.25 0.25 0 0 0 1.25 11L2.75 11A0.25 0.25 0 0 1 3 11.25L3 12.75A0.25 0.25 0 0 0 3.25 13L3.75 13A0.25 0.25 0 0 1 4 13.25L4 13.75A0.25 0.25 0 0 1 3.75 14L0.25 14A0.25 0.25 0 0 0 0 14.25L0 14.75A0.25 0.25 0 0 0 0.25 15L2.75 15A0.25 0.25 0 0 1 3 15.25L3 15.75A0.25 0.25 0 0 1 2.75 16L0.25 16A0.25 0.25 0 0 0 0 16.25L0 16.75A0.25 0.25 0 0 0 0.25 17L2.75 17A0.25 0.25 0 0 0 3 16.75L3 16.25A0.25 0.25 0 0 1 3.25 16L3.75 16A0.25 0.25 0 0 1 4 16.25L4 16.75A0.25 0.25 0 0 0 4.25 17L7.75 17A0.25 0.25 0 0 1 8 17.25L8 18.75A0.25 0.25 0 0 0 8.25 19L8.75 19A0.25 0.25 0 0 1 9 19.25L9 19.75A0.25 0.25 0 0 0 9.25 20L9.75 20A0.25 0.25 0 0 0 10 19.75L10 19.25A0.25 0.25 0 0 1 10.25 19L11.75 19A0.25 0.25 0 0 1 12 19.25L12 19.75A0.25 0.25 0 0 1 11.75 20L11.25 20A0.25 0.25 0 0 0 11 20.25L11 21.75A0.25 0.25 0 0 0 11.25 22L11.75 22A0.25 0.25 0 0 1 12 22.25L12 22.75A0.25 0.25 0 0 1 11.75 23L10.25 23A0.25 0.25 0 0 1 10 22.75L10 21.25A0.25 0.25 0 0 0 9.75 21L9.25 21A0.25 0.25 0 0 0 9 21.25L9 21.75A0.25 0.25 0 0 1 8.75 22L8.25 22A0.25 0.25 0 0 0 8 22.25L8 22.75A0.25 0.25 0 0 0 8.25 23L8.75 23A0.25 0.25 0 0 1 9 23.25L9 23.75A0.25 0.25 0 0 1 8.75 24L8.25 24A0.25 0.25 0 0 0 8 24.25L8 24.75A0.25 0.25 0 0 0 8.25 25L8.75 25A0.25 0.25 0 0 0 9 24.75L9 24.25A0.25 0.25 0 0 1 9.25 24L10.75 24A0.25 0.25 0 0 1 11 24.25L11 24.75A0.25 0.25 0 0 0 11.25 25L11.75 25A0.25 0.25 0 0 0 12 24.75L12 24.25A0.25 0.25 0 0 1 12.25 24L12.75 24A0.25 0.25 0 0 1 13 24.25L13 24.75A0.25 0.25 0 0 0 13.25 25L17.75 25A0.25 0.25 0 0 0 18 24.75L18 23.25A0.25 0.25 0 0 0 17.75 23L17.25 23A0.25 0.25 0 0 1 17 22.75L17 21.25A0.25 0.25 0 0 1 17.25 21L19.75 21A0.25 0.25 0 0 1 20 21.25L20 21.75A0.25 0.25 0 0 1 19.75 22L19.25 22A0.25 0.25 0 0 0 19 22.25L19 24.75A0.25 0.25 0 0 0 19.25 25L20.75 25A0.25 0.25 0 0 0 21 24.75L21 23.25A0.25 0.25 0 0 0 20.75 23L20.25 23A0.25 0.25 0 0 1 20 22.75L20 22.25A0.25 0.25 0 0 1 20.25 22L21.75 22A0.25 0.25 0 0 0 22 21.75L22 21.25A0.25 0.25 0 0 1 22.25 21L22.75 21A0.25 0.25 0 0 1 23 21.25L23 23.75A0.25 0.25 0 0 0 23.25 24L23.75 24A0.25 0.25 0 0 1 24 24.25L24 24.75A0.25 0.25 0 0 0 24.25 25L24.75 25A0.25 0.25 0 0 0 25 24.75L25 22.25A0.25 0.25 0 0 0 24.75 22L24.25 22A0.25 0.25 0 0 1 24 21.75L24 20.25A0.25 0.25 0 0 1 24.25 20L24.75 20A0.25 0.25 0 0 0 25 19.75L25 18.25A0.25 0.25 0 0 0 24.75 18L24.25 18A0.25 0.25 0 0 0 24 18.25L24 19.75A0.25 0.25 0 0 1 23.75 20L21.25 20A0.25 0.25 0 0 1 21 19.75L21 18.25A0.25 0.25 0 0 1 21.25 18L21.75 18A0.25 0.25 0 0 0 22 17.75L22 17.25A0.25 0.25 0 0 1 22.25 17L24.75 17A0.25 0.25 0 0 0 25 16.75L25 16.25A0.25 0.25 0 0 0 24.75 16L24.25 16A0.25 0.25 0 0 1 24 15.75L24 14.25A0.25 0.25 0 0 0 23.75 14L23.25 14A0.25 0.25 0 0 0 23 14.25L23 15.75A0.25 0.25 0 0 1 22.75 16L22.25 16A0.25 0.25 0 0 1 22 15.75L22 15.25A0.25 0.25 0 0 0 21.75 15L21.25 15A0.25 0.25 0 0 0 21 15.25L21 15.75A0.25 0.25 0 0 1 20.75 16L19.25 16A0.25 0.25 0 0 1 19 15.75L19 15.25A0.25 0.25 0 0 1 19.25 15L19.75 15A0.25 0.25 0 0 0 20 14.75L20 14.25A0.25 0.25 0 0 1 20.25 14L21.75 14A0.25 0.25 0 0 0 22 13.75L22 13.25A0.25 0.25 0 0 1 22.25 13L22.75 13A0.25 0.25 0 0 0 23 12.75L23 12.25A0.25 0.25 0 0 0 22.75 12L22.25 12A0.25 0.25 0 0 1 22 11.75L22 11.25A0.25 0.25 0 0 0 21.75 11L21.25 11A0.25 0.25 0 0 0 21 11.25L21 12.75A0.25 0.25 0 0 1 20.75 13L19.25 13A0.25 0.25 0 0 1 19 12.75L19 11.25A0.25 0.25 0 0 1 19.25 11L19.75 11A0.25 0.25 0 0 0 20 10.75L20 10.25A0.25 0.25 0 0 1 20.25 10L21.75 10A0.25 0.25 0 0 0 22 9.75L22 9.25A0.25 0.25 0 0 1 22.25 9L22.75 9A0.25 0.25 0 0 0 23 8.75L23 8.25A0.25 0.25 0 0 0 22.75 8L22.25 8A0.25 0.25 0 0 0 22 8.25L22 8.75A0.25 0.25 0 0 1 21.75 9L20.25 9A0.25 0.25 0 0 1 20 8.75L20 8.25A0.25 0.25 0 0 0 19.75 8L19.25 8A0.25 0.25 0 0 0 19 8.25L19 8.75A0.25 0.25 0 0 1 18.75 9L17.25 9A0.25 0.25 0 0 1 17 8.75L17 6.25A0.25 0.25 0 0 0 16.75 6L16.25 6A0.25 0.25 0 0 0 16 6.25L16 6.75A0.25 0.25 0 0 1 15.75 7L15.25 7A0.25 0.25 0 0 1 15 6.75L15 6.25A0.25 0.25 0 0 0 14.75 6L14.25 6A0.25 0.25 0 0 1 14 5.75L14 4.25A0.25 0.25 0 0 1 14.25 4L14.75 4A0.25 0.25 0 0 1 15 4.25L15 4.75A0.25 0.25 0 0 0 15.25 5L16.75 5A0.25 0.25 0 0 0 17 4.75L17 3.25A0.25 0.25 0 0 0 16.75 3L16.25 3A0.25 0.25 0 0 0 16 3.25L16 3.75A0.25 0.25 0 0 1 15.75 4L15.25 4A0.25 0.25 0 0 1 15 3.75L15 1.25A0.25 0.25 0 0 0 14.75 1L14.25 1A0.25 0.25 0 0 1 14 0.75L14 0.25A0.25 0.25 0 0 0 13.75 0L13.25 0A0.25 0.25 0 0 0 13 0.25L13 0.75A0.25 0.25 0 0 1 12.75 1L12.25 1A0.25 0.25 0 0 1 12 0.75L12 0.25A0.25 0.25 0 0 0 11.75 0L11.25 0A0.25 0.25 0 0 0 11 0.25ZM11 1.25L11 2.75A0.25 0.25 0 0 0 11.25 3L12.75 3A0.25 0.25 0 0 1 13 3.25L13 3.75A0.25 0.25 0 0 0 13.25 4L13.75 4A0.25 0.25 0 0 0 14 3.75L14 3.25A0.25 0.25 0 0 0 13.75 3L13.25 3A0.25 0.25 0 0 1 13 2.75L13 2.25A0.25 0.25 0 0 0 12.75 2L12.25 2A0.25 0.25 0 0 1 12 1.75L12 1.25A0.25 0.25 0 0 0 11.75 1L11.25 1A0.25 0.25 0 0 0 11 1.25ZM8 2.25L8 2.75A0.25 0.25 0 0 0 8.25 3L8.75 3A0.25 0.25 0 0 0 9 2.75L9 2.25A0.25 0.25 0 0 0 8.75 2L8.25 2A0.25 0.25 0 0 0 8 2.25ZM11 4.25L11 6.75A0.25 0.25 0 0 0 11.25 7L11.75 7A0.25 0.25 0 0 0 12 6.75L12 6.25A0.25 0.25 0 0 1 12.25 6L12.75 6A0.25 0.25 0 0 1 13 6.25L13 6.75A0.25 0.25 0 0 0 13.25 7L13.75 7A0.25 0.25 0 0 0 14 6.75L14 6.25A0.25 0.25 0 0 0 13.75 6L13.25 6A0.25 0.25 0 0 1 13 5.75L13 5.25A0.25 0.25 0 0 0 12.75 5L12.25 5A0.25 0.25 0 0 1 12 4.75L12 4.25A0.25 0.25 0 0 0 11.75 4L11.25 4A0.25 0.25 0 0 0 11 4.25ZM24 8.25L24 8.75A0.25 0.25 0 0 0 24.25 9L24.75 9A0.25 0.25 0 0 0 25 8.75L25 8.25A0.25 0.25 0 0 0 24.75 8L24.25 8A0.25 0.25 0 0 0 24 8.25ZM15 9.25L15 9.75A0.25 0.25 0 0 1 14.75 10L14.25 10A0.25 0.25 0 0 0 14 10.25L14 10.75A0.25 0.25 0 0 0 14.25 11L14.75 11A0.25 0.25 0 0 0 15 10.75L15 10.25A0.25 0.25 0 0 1 15.25 10L15.75 10A0.25 0.25 0 0 1 16 10.25L16 10.75A0.25 0.25 0 0 0 16.25 11L17.75 11A0.25 0.25 0 0 0 18 10.75L18 10.25A0.25 0.25 0 0 0 17.75 10L17.25 10A0.25 0.25 0 0 1 17 9.75L17 9.25A0.25 0.25 0 0 0 16.75 9L15.25 9A0.25 0.25 0 0 0 15 9.25ZM4 10.25L4 10.75A0.25 0.25 0 0 0 4.25 11L4.75 11A0.25 0.25 0 0 0 5 10.75L5 10.25A0.25 0.25 0 0 0 4.75 10L4.25 10A0.25 0.25 0 0 0 4 10.25ZM23 10.25L23 10.75A0.25 0.25 0 0 0 23.25 11L23.75 11A0.25 0.25 0 0 1 24 11.25L24 12.75A0.25 0.25 0 0 0 24.25 13L24.75 13A0.25 0.25 0 0 0 25 12.75L25 11.25A0.25 0.25 0 0 0 24.75 11L24.25 11A0.25 0.25 0 0 1 24 10.75L24 10.25A0.25 0.25 0 0 0 23.75 10L23.25 10A0.25 0.25 0 0 0 23 10.25ZM6 11.25L6 11.75A0.25 0.25 0 0 1 5.75 12L4.25 12A0.25 0.25 0 0 0 4 12.25L4 12.75A0.25 0.25 0 0 0 4.25 13L5.75 13A0.25 0.25 0 0 1 6 13.25L6 13.75A0.25 0.25 0 0 1 5.75 14L4.25 14A0.25 0.25 0 0 0 4 14.25L4 14.75A0.25 0.25 0 0 0 4.25 15L5.75 15A0.25 0.25 0 0 1 6 15.25L6 15.75A0.25 0.25 0 0 0 6.25 16L7.75 16A0.25 0.25 0 0 0 8 15.75L8 15.25A0.25 0.25 0 0 0 7.75 15L6.25 15A0.25 0.25 0 0 1 6 14.75L6 14.25A0.25 0.25 0 0 1 6.25 14L6.75 14A0.25 0.25 0 0 0 7 13.75L7 13.25A0.25 0.25 0 0 0 6.75 13L6.25 13A0.25 0.25 0 0 1 6 12.75L6 12.25A0.25 0.25 0 0 1 6.25 12L6.75 12A0.25 0.25 0 0 0 7 11.75L7 11.25A0.25 0.25 0 0 0 6.75 11L6.25 11A0.25 0.25 0 0 0 6 11.25ZM0 12.25L0 12.75A0.25 0.25 0 0 0 0.25 13L1.75 13A0.25 0.25 0 0 0 2 12.75L2 12.25A0.25 0.25 0 0 0 1.75 12L0.25 12A0.25 0.25 0 0 0 0 12.25ZM15 14.25L15 14.75A0.25 0.25 0 0 0 15.25 15L15.75 15A0.25 0.25 0 0 1 16 15.25L16 15.75A0.25 0.25 0 0 0 16.25 16L17.75 16A0.25 0.25 0 0 0 18 15.75L18 14.25A0.25 0.25 0 0 0 17.75 14L17.25 14A0.25 0.25 0 0 0 17 14.25L17 14.75A0.25 0.25 0 0 1 16.75 15L16.25 15A0.25 0.25 0 0 1 16 14.75L16 14.25A0.25 0.25 0 0 0 15.75 14L15.25 14A0.25 0.25 0 0 0 15 14.25ZM9 15.25L9 15.75A0.25 0.25 0 0 0 9.25 16L9.75 16A0.25 0.25 0 0 0 10 15.75L10 15.25A0.25 0.25 0 0 0 9.75 15L9.25 15A0.25 0.25 0 0 0 9 15.25ZM10 17.25L10 17.75A0.25 0.25 0 0 0 10.25 18L10.75 18A0.25 0.25 0 0 0 11 17.75L11 17.25A0.25 0.25 0 0 0 10.75 17L10.25 17A0.25 0.25 0 0 0 10 17.25ZM17 17.25L17 19.75A0.25 0.25 0 0 0 17.25 20L19.75 20A0.25 0.25 0 0 0 20 19.75L20 17.25A0.25 0.25 0 0 0 19.75 17L17.25 17A0.25 0.25 0 0 0 17 17.25ZM18 18.25L18 18.75A0.25 0.25 0 0 0 18.25 19L18.75 19A0.25 0.25 0 0 0 19 18.75L19 18.25A0.25 0.25 0 0 0 18.75 18L18.25 18A0.25 0.25 0 0 0 18 18.25ZM15 20.25L15 20.75A0.25 0.25 0 0 1 14.75 21L12.25 21A0.25 0.25 0 0 0 12 21.25L12 21.75A0.25 0.25 0 0 0 12.25 22L12.75 22A0.25 0.25 0 0 1 13 22.25L13 23.75A0.25 0.25 0 0 0 13.25 24L14.75 24A0.25 0.25 0 0 0 15 23.75L15 23.25A0.25 0.25 0 0 1 15.25 23L15.75 23A0.25 0.25 0 0 1 16 23.25L16 23.75A0.25 0.25 0 0 0 16.25 24L16.75 24A0.25 0.25 0 0 0 17 23.75L17 23.25A0.25 0.25 0 0 0 16.75 23L16.25 23A0.25 0.25 0 0 1 16 22.75L16 20.25A0.25 0.25 0 0 0 15.75 20L15.25 20A0.25 0.25 0 0 0 15 20.25Z" fill="#000000"/></g></g></svg>
